<svg width="41" height="15" viewBox="0 0 41 15" fill="none" xmlns="http://www.w3.org/2000/svg">
<path d="M13.644 7.70035C13.644 3.99235 10.71 1.14835 7.09204 1.14835C3.47404 1.14835 0.540039 3.99235 0.540039 7.70035C0.540039 11.4084 3.47404 14.2524 7.09204 14.2524C8.15404 14.2524 9.16204 14.0004 10.044 13.5684L11.394 14.9904L13.464 13.1544L12.204 11.8224C13.104 10.7064 13.644 9.28435 13.644 7.70035ZM7.09204 11.4444C5.04004 11.4444 3.42004 9.95035 3.42004 7.70035C3.42004 5.45035 5.04004 3.95635 7.09204 3.95635C9.14404 3.95635 10.764 5.45035 10.764 7.70035C10.764 8.47435 10.566 9.15835 10.242 9.73435L8.22604 7.59235L6.15604 9.42835L7.97404 11.3544C7.68604 11.4084 7.39804 11.4444 7.09204 11.4444Z" fill="#5445FF"/>
<path d="M22.8428 1.40035H13.4828V4.17235H16.7228V14.0004H19.6028V4.17235H22.8428V1.40035Z" fill="#5445FF"/>
<path d="M28.6803 5.00035V5.84635C28.0863 5.16235 27.2043 4.74835 25.9983 4.74835C23.6403 4.74835 21.6963 6.81835 21.6963 9.50035C21.6963 12.1824 23.6403 14.2524 25.9983 14.2524C27.2043 14.2524 28.0863 13.8384 28.6803 13.1544V14.0004H31.3803V5.00035H28.6803ZM26.5383 11.6964C25.2963 11.6964 24.3963 10.8504 24.3963 9.50035C24.3963 8.15035 25.2963 7.30435 26.5383 7.30435C27.7803 7.30435 28.6803 8.15035 28.6803 9.50035C28.6803 10.8504 27.7803 11.6964 26.5383 11.6964Z" fill="#5445FF"/>
<path d="M34.4611 4.20835C35.3431 4.20835 36.0811 3.47035 36.0811 2.58835C36.0811 1.70635 35.3431 0.968351 34.4611 0.968351C33.5791 0.968351 32.8411 1.70635 32.8411 2.58835C32.8411 3.47035 33.5791 4.20835 34.4611 4.20835ZM33.1111 14.0004H35.8111V5.00035H33.1111V14.0004Z" fill="#5445FF"/>
<path d="M37.5369 14.0004H40.2369V0.860352H37.5369V14.0004Z" fill="#5445FF"/>
</svg>
